<svg width="3126" height="1713" viewBox="0 0 3126 1713" fill="none" xmlns="http://www.w3.org/2000/svg">
<path d="M286.033 393.756C348.341 393.513 405.993 426.701 437.075 480.704C453.421 507.14 487.583 516.182 514.867 501.296C541.187 485.282 551.492 450.954 535.459 423.486C483.588 334.929 388.664 280.502 286.033 280.47C128.152 280.47 0 408.566 0 567.652C0 725.552 128.152 854.852 286.033 854.852C384.527 854.852 474.831 805.605 527.452 723.272C544.616 696.952 537.757 661.476 511.437 644.313C485.136 628.298 449.66 635.193 432.497 661.476C400.671 711.554 345.369 741.796 286.033 741.566C191.079 741.566 112.119 662.625 112.119 567.652C112.119 471.548 191.079 393.756 286.033 393.756Z" fill="#00DF7C"/>
<path d="M713.587 -0.00246688C681.541 -0.00246688 656.37 25.1682 656.37 56.0656V797.632C656.066 828.928 681.191 854.546 712.487 854.85C712.854 854.852 713.221 854.852 713.587 854.85C744.485 854.85 769.655 829.66 769.655 797.632V56.0656C769.606 25.1216 744.533 0.0481998 713.587 -0.00246688Z" fill="#00DF7C"/>
<path d="M1174.14 742.04C1077.47 742.04 995.715 668.37 995.715 571.682C995.715 474.994 1077.45 393.281 1174.14 393.281C1270.82 393.281 1344.47 475.013 1344.47 571.682C1344.47 668.352 1270.82 742.04 1174.14 742.04ZM1174.14 280.488C1011.8 280.488 882.922 409.386 882.922 571.682C882.922 733.978 1011.84 854.852 1174.14 854.852C1239.8 854.852 1294.99 838.728 1344.47 797.288C1344.47 830.665 1376.72 854.852 1399.72 854.852C1433.12 854.852 1457.29 830.665 1457.29 797.288V571.682C1457.34 409.386 1336.43 280.488 1174.14 280.488Z" fill="#00DF7C"/>
<path d="M1857.74 280.466C1699.93 280.466 1570.55 408.562 1570.55 567.648V797.63C1570.65 829.189 1596.21 854.748 1627.77 854.848C1658.65 854.848 1683.82 828.529 1683.82 797.63V567.648C1683.78 471.649 1761.57 393.793 1857.57 393.752H1857.74C1889.3 393.662 1914.86 368.098 1914.95 336.534C1914.95 305.637 1889.78 280.466 1857.74 280.466Z" fill="#00DF7C"/>
<path d="M2464.16 299.913C2443.74 276.298 2408.22 273.257 2384.07 293.054L2124.34 463.54V56.2142C2124.34 25.3168 2098.04 0.146215 2067.14 0.146215C2036.2 0.195548 2011.12 25.2688 2011.07 56.2142V797.634C2011.07 829.662 2036.24 854.852 2067.14 854.852C2098.7 854.752 2124.25 829.19 2124.34 797.634V597.4L2159.82 573.378L2377.22 834.205C2387.5 847.921 2403.54 854.797 2420.68 854.797C2433.79 854.745 2446.43 849.854 2456.16 841.062C2480.11 821.444 2483.69 786.15 2464.16 762.121L2255.87 511.601L2456.1 380.021C2480.12 360.56 2483.55 323.953 2464.16 299.913Z" fill="#00DF7C"/>
<path d="M2673.43 510.452C2698.08 440.571 2764.08 393.803 2838.19 393.719C2906.84 393.719 2980.05 430.344 3004.17 510.452H2673.43ZM2838.19 280.47C2679.88 280.167 2551.31 408.252 2551 566.556C2551 566.922 2551 567.287 2551 567.652C2551 725.551 2679.15 854.834 2838.19 854.834C2880.52 854.834 2938.89 855.983 3014.38 805.587C3040.7 788.423 3055.58 758.675 3041.85 730.075C3028.11 702.606 2992.6 686.592 2966.34 703.755C2911.42 739.212 2864.51 741.511 2838.19 741.511C2761.58 741.511 2697.45 692.264 2673.43 623.666H3068.17C3100.2 623.666 3125.37 598.495 3125.37 567.598C3125.37 381.207 2976.7 280.47 2838.19 280.47Z" fill="#00DF7C"/>
<path d="M428.754 1215.84L67.6875 1215.76L80.2581 1180.42C105.542 1109.35 173.213 1061.44 248.646 1061.2C310.369 1061.2 391.887 1092.78 418.526 1181.78L428.754 1215.84ZM401.35 1072.83C360.438 1036.36 304.79 1015.44 248.679 1015.44C125.355 1015.44 25.0234 1115.79 25.0234 1239.13C25.0234 1362.46 125.355 1462.8 248.679 1462.8H251.146C286.209 1462.8 329.846 1462.8 387.522 1424.39C389.299 1423.23 395.334 1419.06 399.63 1413.06C404.663 1406.04 405.562 1399.01 402.307 1392.17C398.922 1385.66 392.843 1380.68 385.681 1378.61C381.893 1377.45 377.881 1377.96 374.629 1379.99C323.223 1413.23 278.153 1417.08 248.727 1417.08C173.175 1417.08 105.481 1368.71 80.2741 1296.72L67.9408 1261.51H448.965C462.061 1261.51 472.319 1251.69 472.319 1239.15C472.338 1154 433.734 1101.71 401.35 1072.83Z" fill="#00DF7C"/>
<path d="M796.371 1015.44C673.038 1015.44 572.699 1115.79 572.699 1239.13V1439.43C572.699 1452.53 582.518 1462.8 595.053 1462.8L595.334 1462.8C607.943 1462.8 618.307 1452.57 618.439 1440L618.438 1239.19C618.455 1191.66 636.979 1146.98 670.598 1113.39C704.201 1079.81 748.866 1061.32 796.369 1061.32C894.478 1061.36 974.27 1141.15 974.303 1239.19V1439.43C974.303 1452.53 984.129 1462.8 996.673 1462.8C996.753 1462.8 996.835 1462.8 996.914 1462.8C1009.58 1462.8 1019.91 1452.63 1020.04 1440.02V1239.19C1020.04 1115.82 919.705 1015.44 796.371 1015.44Z" fill="#00DF7C"/>
<path d="M1524.09 1215.84L1163.03 1215.76L1175.63 1180.41C1200.91 1109.35 1268.58 1061.44 1344.01 1061.2C1405.73 1061.2 1487.24 1092.78 1513.89 1181.78L1524.09 1215.84ZM1496.69 1072.83C1455.79 1036.36 1400.15 1015.44 1344.05 1015.44C1220.72 1015.44 1120.39 1115.79 1120.39 1239.13C1120.39 1362.46 1220.72 1462.8 1344.05 1462.8H1346.45C1381.52 1462.8 1425.16 1462.8 1482.84 1424.39C1484.62 1423.23 1490.65 1419.06 1494.95 1413.06C1499.98 1406.04 1500.87 1399.01 1497.61 1392.17C1494.23 1385.66 1488.15 1380.68 1480.99 1378.61C1477.2 1377.45 1473.19 1377.95 1469.93 1379.99C1418.52 1413.23 1373.46 1417.08 1344.05 1417.08C1268.5 1417.08 1200.8 1368.71 1175.59 1296.72L1163.26 1261.51H1544.28C1557.39 1261.51 1567.65 1251.69 1567.65 1239.15C1567.66 1153.99 1529.07 1101.7 1496.69 1072.83Z" fill="#00DF7C"/>
<path d="M1891.81 1015.44C1768.47 1015.44 1668.12 1115.79 1668.12 1239.13V1439.43C1668.14 1452.3 1678.62 1462.78 1691.5 1462.8C1703.63 1462.8 1713.88 1452.1 1713.88 1439.43V1239.19C1713.95 1141.16 1793.77 1061.31 1891.8 1061.2C1904.68 1061.18 1915.16 1050.68 1915.17 1037.8C1915.14 1025.27 1904.88 1015.44 1891.81 1015.44Z" fill="#00DF7C"/>
<path d="M2207.53 1417.06C2160 1417.06 2115.32 1398.55 2081.72 1364.93C2048.12 1331.33 2029.61 1286.64 2029.62 1239.11C2029.62 1191.59 2048.13 1146.9 2081.74 1113.3C2115.35 1079.7 2160.03 1061.2 2207.55 1061.2C2305.68 1061.21 2385.49 1141.03 2385.48 1239.15C2385.48 1335.59 2303.99 1417.06 2207.53 1417.06ZM2207.53 1015.44C2084.19 1015.44 1983.84 1115.79 1983.84 1239.13C1983.84 1362.46 2084.19 1462.8 2207.53 1462.8C2255.3 1462.8 2302.22 1446.69 2343.22 1416.2L2385.48 1384.77L2385.48 1492.4C2383.1 1588.81 2303.27 1667.17 2207.53 1667.17C2139.11 1667.17 2077.71 1628.69 2047.29 1566.74C2043.35 1559.19 2035.59 1554.47 2027.06 1554.47C2023.53 1554.48 2020.08 1555.23 2017.03 1556.75L2016.82 1556.85C2011.33 1559.41 2007.19 1563.92 2005.12 1569.57C2003.06 1575.22 2003.32 1581.34 2005.86 1586.79C2005.94 1586.97 2006.02 1587.13 2006.1 1587.29C2044.4 1664.77 2121.58 1712.89 2207.53 1712.89C2330.87 1712.89 2431.21 1612.56 2431.21 1489.24V1239.19C2431.2 1115.82 2330.87 1015.44 2207.53 1015.44Z" fill="#00DF7C"/>
<path d="M2554.89 1015.44C2541.8 1015.45 2531.55 1025.27 2531.55 1037.81V1439.43C2531.42 1452.2 2541.63 1462.67 2554.33 1462.8H2554.83C2567.41 1462.8 2577.27 1452.54 2577.27 1439.43V1037.81C2577.25 1025.5 2567.21 1015.46 2554.89 1015.44Z" fill="#00DF7C"/>
<path d="M2903.28 1415.07C2803.52 1415.07 2722.35 1337.04 2722.35 1241.12C2722.35 1143.05 2805.21 1060.19 2903.28 1060.19C2999.19 1060.19 3077.22 1141.36 3077.22 1241.12C3077.22 1340.29 3002.44 1415.07 2903.28 1415.07ZM2903.28 1015.44C2776.74 1015.44 2677.62 1114.57 2677.62 1241.12C2677.62 1365.79 2774.63 1459.81 2903.28 1459.81C2956.73 1459.81 2998.2 1445.93 3033.79 1416.14L3077.22 1379.77V1436.52C3077.22 1450.7 3093.09 1459.87 3098.58 1459.87C3112.79 1459.87 3121.97 1450.7 3121.97 1436.52V1241.12C3121.97 1112.46 3027.95 1015.44 2903.28 1015.44Z" fill="#00DF7C"/>
</svg>
